<svg width="29" height="28" viewBox="0 0 29 28" fill="none" xmlns="http://www.w3.org/2000/svg">
<path d="M8.39897 26.5648H4.60623C3.93563 26.5648 3.29249 26.2984 2.81831 25.8242C2.34412 25.35 2.07773 24.7069 2.07773 24.0363V15.1866C2.07773 14.516 2.34412 13.8728 2.81831 13.3986C3.29249 12.9244 3.93563 12.6581 4.60623 12.6581H8.39897M17.2487 10.1296V5.07256C17.2487 4.06666 16.8491 3.10196 16.1378 2.39069C15.4266 1.67941 14.4619 1.27982 13.456 1.27982L8.39897 12.6581V26.5648H22.6597C23.2695 26.5717 23.8612 26.358 24.3259 25.963C24.7905 25.5681 25.0968 25.0185 25.1882 24.4156L26.9329 13.0373C26.9879 12.6749 26.9634 12.3049 26.8612 11.9529C26.759 11.6009 26.5815 11.2753 26.341 10.9987C26.1005 10.7222 25.8027 10.5012 25.4683 10.3511C25.1339 10.201 24.7709 10.1254 24.4044 10.1296H17.2487Z" stroke="#8991A0" stroke-width="2.5285" stroke-linecap="round" stroke-linejoin="round"/>
</svg>
